<?xml version="1.0" encoding="utf-8"?>
<!-- Generator: Adobe Illustrator 17.0.0, SVG Export Plug-In . SVG Version: 6.00 Build 0)  -->
<!DOCTYPE svg PUBLIC "-//W3C//DTD SVG 1.1//EN" "http://www.w3.org/Graphics/SVG/1.1/DTD/svg11.dtd">
<svg version="1.1" id="Capa_1" xmlns="http://www.w3.org/2000/svg" xmlns:xlink="http://www.w3.org/1999/xlink" x="0px" y="0px"
	 width="72.489px" height="72.01px" viewBox="0 0 72.489 72.01" enable-background="new 0 0 72.489 72.01" xml:space="preserve">
<g>
	<path fill="#FDD036" d="M36.276,0c20.121,0.002,36.284,16.12,36.226,36.124C72.444,56.106,56.269,72.023,36.038,72.01
		C16.15,71.997,0.033,55.925,0,36.073C-0.033,16.072,16.131-0.002,36.276,0z"/>
</g>
<g>
	<path fill="#FDFFFC" d="M35.422,43.602c-3.509-0.043-6.664-1.048-9.137-3.635c-2.274-2.38-3.002-5.153-1.719-8.306
		c1.835-4.507,4.537-8.518,7.212-12.541c0.985-1.481,2.061-2.901,3.069-4.366c0.369-0.536,0.599-0.853,1.133-0.097
		c3.422,4.843,6.871,9.671,9.448,15.037c3.078,6.41,0.375,11.883-6.61,13.532C37.702,43.49,36.574,43.625,35.422,43.602z"/>
	<path fill="#FDFFFC" d="M51.83,46.879c-1.075,1.043-2.123,1.757-3.328,2.23c-1.587,0.623-3.117,0.624-4.539-0.443
		c-1.609-1.208-3.18-1.024-4.806,0.018c-1.889,1.211-3.898,1.276-5.815,0.126c-1.752-1.051-3.351-1.081-5.12-0.018
		c-1.977,1.187-4.916,1.569-7.451-1.941c0.893-0.255,1.76-0.257,2.487,0.171c1.554,0.913,2.968,0.533,4.399-0.232
		c2.202-1.178,4.304-1.48,6.477,0.242c1.419,1.125,3.061,0.759,4.466-0.218c2.218-1.543,4.359-1.341,6.458,0.14
		c1.326,0.935,2.668,0.851,4.001,0.178C49.925,46.694,50.761,46.656,51.83,46.879z"/>
	<path fill="#FDFFFC" d="M20.8,55.024c0.898-0.254,1.775-0.202,2.526,0.222c1.458,0.822,2.81,0.549,4.156-0.187
		c2.285-1.249,4.462-1.624,6.726,0.2c1.381,1.112,3.003,0.694,4.351-0.234c2.275-1.566,4.435-1.364,6.577,0.17
		c1.285,0.92,2.61,0.746,3.89,0.126c0.874-0.423,1.707-0.475,2.648-0.305c-2.217,2.754-5.284,3.35-8.087,1.593
		c-1.46-0.915-2.871-0.718-4.245,0.145c-2.087,1.311-4.169,1.434-6.29,0.095c-1.441-0.91-2.939-0.994-4.4-0.11
		C25.362,58.734,22.691,57.779,20.8,55.024z"/>
	<path fill="#FDFFFC" d="M20.672,50.705c0.98-0.116,1.826-0.226,2.55,0.204c1.591,0.945,3.051,0.571,4.514-0.267
		c1.219-0.699,2.525-1.009,3.937-0.868c0.657,0.065,1.237,0.292,1.767,0.667c1.999,1.412,3.402,1.495,5.382,0.167
		c2.053-1.377,4.113-1.204,5.999,0.111c1.438,1.003,2.8,1.025,4.23,0.336c0.874-0.421,1.713-0.484,2.638-0.36
		c-2.012,2.737-5.296,3.397-8.108,1.623c-1.465-0.924-2.865-0.702-4.234,0.164c-2.084,1.319-4.166,1.401-6.287,0.091
		c-1.34-0.828-2.754-0.94-4.171-0.238C25.032,54.248,23.65,54.005,20.672,50.705z"/>
	<path fill="#FDD036" d="M35.602,40.224c-1.518,0.026-2.853-0.246-4.116-0.818c-3.703-1.679-4.888-4.742-3.21-8.402
		c1.778-3.878,4.261-7.324,6.7-10.798c0.421-0.6,0.641-0.401,0.963,0.054c2.425,3.428,4.86,6.854,6.64,10.677
		c1.79,3.844,0.295,7.27-3.752,8.709C37.749,40.028,36.633,40.273,35.602,40.224z"/>
</g>
</svg>
